<?xml version="1.0" encoding="utf-8"?>
<!-- Generator: Adobe Illustrator 19.0.0, SVG Export Plug-In . SVG Version: 6.00 Build 0)  -->
<svg version="1.1" id="Layer_1" xmlns="http://www.w3.org/2000/svg" xmlns:xlink="http://www.w3.org/1999/xlink" x="0px" y="0px"
	 viewBox="-93 5 512 512" style="enable-background:new -93 5 512 512;" xml:space="preserve">
<style type="text/css">
	.st0{fill:#FFFFFF;}
</style>
<g>
	<g>
		<path class="st0" d="M288.5,31.2C254.7,14.3,210.1,5,163,5S71.3,14.3,37.5,31.2C0,50-20.7,76.2-20.7,105.2v311.7
			c0,29,20.6,55.2,58.1,74C71.3,507.7,115.9,517,163,517s91.7-9.3,125.5-26.2c37.5-18.7,58.1-45,58.1-74V105.2
			C346.7,76.2,326,50,288.5,31.2z M163,483.6c-88.6,0-150.3-35.2-150.3-66.8S74.4,350,163,350s150.3,35.2,150.3,66.8
			S251.6,483.6,163,483.6z M313.3,358.1c-0.4-0.3-0.7-0.5-1.1-0.8c-0.5-0.4-1.1-0.8-1.6-1.2c-0.4-0.3-0.8-0.5-1.2-0.8
			c-0.6-0.4-1.1-0.8-1.7-1.2c-0.4-0.3-0.8-0.5-1.2-0.8c-0.6-0.4-1.2-0.8-1.7-1.2c-0.4-0.3-0.8-0.5-1.2-0.8c-0.6-0.4-1.2-0.8-1.8-1.2
			c-0.4-0.3-0.8-0.5-1.2-0.7c-0.6-0.4-1.3-0.8-1.9-1.1c-0.4-0.2-0.8-0.5-1.2-0.7c-0.7-0.4-1.3-0.8-2-1.2c-0.3-0.2-0.6-0.3-1-0.5
			c-1.9-1-3.8-2.1-5.8-3.1c-25.4-12.7-56.8-21.1-90.8-24.5c-11.3-1.1-23-1.7-34.7-1.7s-23.4,0.6-34.7,1.7
			c-34,3.4-65.4,11.8-90.8,24.5c-2,1-3.9,2-5.8,3.1c-0.3,0.2-0.6,0.3-1,0.5c-0.7,0.4-1.4,0.8-2,1.2c-0.4,0.2-0.8,0.5-1.2,0.7
			c-0.6,0.4-1.3,0.8-1.9,1.1c-0.4,0.3-0.8,0.5-1.2,0.7c-0.6,0.4-1.2,0.8-1.8,1.2c-0.4,0.3-0.8,0.5-1.2,0.8c-0.6,0.4-1.2,0.8-1.7,1.2
			c-0.4,0.3-0.8,0.5-1.2,0.8c-0.6,0.4-1.1,0.8-1.7,1.2c-0.4,0.3-0.8,0.5-1.2,0.8c-0.5,0.4-1.1,0.8-1.6,1.2c-0.4,0.3-0.7,0.5-1.1,0.8
			V163.9c0.4,0.3,0.7,0.5,1.1,0.8c0.5,0.4,1.1,0.8,1.6,1.2c0.4,0.3,0.8,0.5,1.2,0.8c0.6,0.4,1.1,0.8,1.7,1.2
			c0.4,0.3,0.8,0.5,1.2,0.8c0.6,0.4,1.2,0.8,1.7,1.2c0.4,0.3,0.8,0.5,1.2,0.8c0.6,0.4,1.2,0.8,1.8,1.2c0.4,0.3,0.8,0.5,1.2,0.7
			c0.6,0.4,1.3,0.8,1.9,1.1c0.4,0.2,0.8,0.5,1.2,0.7c0.7,0.4,1.3,0.8,2,1.2c0.3,0.2,0.6,0.3,1,0.5c1.9,1,3.8,2.1,5.8,3.1
			c25.4,12.7,56.8,21.1,90.8,24.5c11.3,1.1,23,1.7,34.7,1.7s23.4-0.6,34.7-1.7c34-3.4,65.4-11.8,90.8-24.5c2-1,3.9-2,5.8-3.1
			c0.3-0.2,0.6-0.3,1-0.5c0.7-0.4,1.4-0.8,2-1.2c0.4-0.2,0.8-0.5,1.2-0.7c0.6-0.4,1.3-0.8,1.9-1.1c0.4-0.3,0.8-0.5,1.2-0.7
			c0.6-0.4,1.2-0.8,1.8-1.2c0.4-0.3,0.8-0.5,1.2-0.8c0.6-0.4,1.2-0.8,1.7-1.2c0.4-0.3,0.8-0.5,1.2-0.8c0.6-0.4,1.1-0.8,1.7-1.2
			c0.4-0.3,0.8-0.5,1.2-0.8c0.5-0.4,1.1-0.8,1.6-1.2c0.4-0.3,0.7-0.5,1.1-0.8V358.1z M163,172c-88.6,0-150.3-35.2-150.3-66.8
			S74.4,38.4,163,38.4s150.3,35.2,150.3,66.8S251.6,172,163,172z"/>
	</g>
</g>
</svg>
