<?xml version="1.0" encoding="utf-8"?>
<!-- Generator: Adobe Illustrator 19.0.0, SVG Export Plug-In . SVG Version: 6.00 Build 0)  -->
<svg version="1.1" id="katman_1" xmlns="http://www.w3.org/2000/svg" xmlns:xlink="http://www.w3.org/1999/xlink" x="0px" y="0px"
	 viewBox="0 0 425.3 371.4" style="enable-background:new 0 0 425.3 371.4;" xml:space="preserve">
<style type="text/css">
	.st0{clip-path:url(#XMLID_54_);fill:none;stroke:#FFECA5;stroke-miterlimit:10;}
</style>
<g id="XMLID_218_">
	<defs>
		<path id="XMLID_62_" d="M333.6,16.3c106.1,35.4,90.6,222,57.3,258.5c-33.4,36.5-72.6,64.8-110.7,80
			c-39.4,14.6-77.7,16.2-136.6-15.1C88.2,310.4,14,254.1,17.3,188.5C19.7,139,255.3-11.5,333.6,16.3z"/>
	</defs>
	<clipPath id="XMLID_54_">
		<use xlink:href="#XMLID_62_"  style="overflow:visible;"/>
	</clipPath>
	<line id="XMLID_266_" class="st0" x1="65.7" y1="352.8" x2="-107.3" y2="-233.6"/>
	<line id="XMLID_265_" class="st0" x1="76.7" y1="358.6" x2="-96.3" y2="-227.8"/>
	<line id="XMLID_264_" class="st0" x1="87.7" y1="364.4" x2="-85.4" y2="-221.9"/>
	<line id="XMLID_263_" class="st0" x1="98.6" y1="370.3" x2="-74.4" y2="-216.1"/>
	<line id="XMLID_262_" class="st0" x1="109.6" y1="376.1" x2="-63.4" y2="-210.3"/>
	<line id="XMLID_261_" class="st0" x1="120.6" y1="381.9" x2="-52.5" y2="-204.4"/>
	<line id="XMLID_260_" class="st0" x1="131.5" y1="387.8" x2="-41.5" y2="-198.6"/>
	<line id="XMLID_259_" class="st0" x1="142.5" y1="393.6" x2="-30.5" y2="-192.8"/>
	<line id="XMLID_258_" class="st0" x1="153.5" y1="399.4" x2="-19.6" y2="-186.9"/>
	<line id="XMLID_257_" class="st0" x1="164.4" y1="405.3" x2="-8.6" y2="-181.1"/>
	<line id="XMLID_256_" class="st0" x1="175.4" y1="411.1" x2="2.4" y2="-175.3"/>
	<line id="XMLID_255_" class="st0" x1="186.3" y1="416.9" x2="13.3" y2="-169.4"/>
	<line id="XMLID_254_" class="st0" x1="197.3" y1="422.8" x2="24.3" y2="-163.6"/>
	<line id="XMLID_253_" class="st0" x1="208.3" y1="428.6" x2="35.3" y2="-157.8"/>
	<line id="XMLID_252_" class="st0" x1="219.2" y1="434.4" x2="46.2" y2="-151.9"/>
	<line id="XMLID_251_" class="st0" x1="230.2" y1="440.3" x2="57.2" y2="-146.1"/>
	<line id="XMLID_250_" class="st0" x1="241.2" y1="446.1" x2="68.2" y2="-140.3"/>
	<line id="XMLID_249_" class="st0" x1="252.1" y1="452" x2="79.1" y2="-134.4"/>
	<line id="XMLID_248_" class="st0" x1="263.1" y1="457.8" x2="90.1" y2="-128.6"/>
	<line id="XMLID_247_" class="st0" x1="274.1" y1="463.6" x2="101.1" y2="-122.8"/>
	<line id="XMLID_246_" class="st0" x1="285" y1="469.5" x2="112" y2="-116.9"/>
	<line id="XMLID_245_" class="st0" x1="296" y1="475.3" x2="123" y2="-111.1"/>
	<line id="XMLID_244_" class="st0" x1="307" y1="481.1" x2="134" y2="-105.2"/>
	<line id="XMLID_243_" class="st0" x1="317.9" y1="487" x2="144.9" y2="-99.4"/>
	<line id="XMLID_242_" class="st0" x1="328.9" y1="492.8" x2="155.9" y2="-93.6"/>
	<line id="XMLID_241_" class="st0" x1="339.9" y1="498.6" x2="166.8" y2="-87.7"/>
	<line id="XMLID_240_" class="st0" x1="350.8" y1="504.5" x2="177.8" y2="-81.9"/>
	<line id="XMLID_239_" class="st0" x1="361.8" y1="510.3" x2="188.8" y2="-76.1"/>
	<line id="XMLID_238_" class="st0" x1="372.8" y1="516.1" x2="199.7" y2="-70.2"/>
	<line id="XMLID_237_" class="st0" x1="383.7" y1="522" x2="210.7" y2="-64.4"/>
	<line id="XMLID_236_" class="st0" x1="394.7" y1="527.8" x2="221.7" y2="-58.6"/>
	<line id="XMLID_235_" class="st0" x1="405.7" y1="533.6" x2="232.6" y2="-52.7"/>
	<line id="XMLID_234_" class="st0" x1="416.6" y1="539.5" x2="243.6" y2="-46.9"/>
	<line id="XMLID_233_" class="st0" x1="427.6" y1="545.3" x2="254.6" y2="-41.1"/>
	<line id="XMLID_232_" class="st0" x1="438.6" y1="551.1" x2="265.5" y2="-35.2"/>
	<line id="XMLID_231_" class="st0" x1="449.5" y1="557" x2="276.5" y2="-29.4"/>
	<line id="XMLID_230_" class="st0" x1="460.5" y1="562.8" x2="287.5" y2="-23.6"/>
	<line id="XMLID_229_" class="st0" x1="471.5" y1="568.7" x2="298.4" y2="-17.7"/>
	<line id="XMLID_228_" class="st0" x1="482.4" y1="574.5" x2="309.4" y2="-11.9"/>
	<line id="XMLID_227_" class="st0" x1="493.4" y1="580.3" x2="320.4" y2="-6.1"/>
	<line id="XMLID_226_" class="st0" x1="504.3" y1="586.2" x2="331.3" y2="-0.2"/>
	<line id="XMLID_225_" class="st0" x1="515.3" y1="592" x2="342.3" y2="5.6"/>
	<line id="XMLID_224_" class="st0" x1="526.3" y1="597.8" x2="353.3" y2="11.5"/>
	<line id="XMLID_223_" class="st0" x1="537.2" y1="603.7" x2="364.2" y2="17.3"/>
	<line id="XMLID_222_" class="st0" x1="548.2" y1="609.5" x2="375.2" y2="23.1"/>
</g>
</svg>
