<?xml version="1.0" encoding="utf-8"?>
<!-- Generator: Adobe Illustrator 19.0.0, SVG Export Plug-In . SVG Version: 6.00 Build 0)  -->
<svg version="1.1" id="Layer_1" xmlns="http://www.w3.org/2000/svg" xmlns:xlink="http://www.w3.org/1999/xlink" x="0px" y="0px"
	 viewBox="-93 5 512 512" style="enable-background:new -93 5 512 512;" xml:space="preserve">
<style type="text/css">
	.st0{fill:#FFFFFF;}
</style>
<g>
	<g>
		<path class="st0" d="M280.7,263.9L394,150.7c16.1-16.1,25-37.5,25-60.3c0-22.8-8.9-44.2-25-60.3c-16.1-16.1-37.5-25-60.3-25
			c-22.8,0-44.2,8.9-60.3,25L160.1,143.3L32.7,15.9c-6.7-6.7-17.5-6.7-24.1,0L-88,112.4c-6.7,6.7-6.7,17.5,0,24.1L39.4,263.9
			l-93.3,93.3c-2.2,2.2-3.8,5-4.5,8l-31.4,127.9c-1.4,5.8,0.3,11.9,4.5,16.1c3.2,3.2,7.6,5,12.1,5c1.4,0,2.7-0.2,4.1-0.5l127.9-31.4
			c3-0.7,5.8-2.3,8-4.5l93.3-93.3L287.5,512c3.3,3.3,7.7,5,12.1,5s8.7-1.7,12.1-5l96.5-96.5c6.7-6.7,6.7-17.5,0-24.1L280.7,263.9z
			 M297.5,54.1c9.7-9.7,22.5-15,36.2-15c13.7,0,26.5,5.3,36.2,15c9.7,9.7,15,22.5,15,36.2s-5.3,26.5-15,36.2l-10.1,10.1l-72.4-72.4
			L297.5,54.1z M-51.8,124.5l72.4-72.4l69.7,69.7l-19.1,19.1c-6.7,6.7-6.7,17.5,0,24.1c3.3,3.3,7.7,5,12.1,5c4.4,0,8.7-1.7,12.1-5
			l19.1-19.1l21.5,21.5l-72.4,72.4L-51.8,124.5z M75.6,276C75.6,276,75.6,276,75.6,276l96.5-96.5c0,0,0,0,0,0l91.1-91.1l24.1,24.1
			L6.5,393.4l-24.1-24.1L75.6,276z M-49.9,473.9l17.5-71.1l53.7,53.7L-49.9,473.9z M54.7,441.7l-24.1-24.1l280.9-280.9l24.1,24.1
			L54.7,441.7z M299.5,475.8L184.2,360.5l29.1-29.1l43.3-43.3l21.5,21.5l-19.1,19.1c-6.7,6.7-6.7,17.5,0,24.1c3.3,3.3,7.7,5,12.1,5
			s8.7-1.7,12.1-5l19.1-19.1l69.7,69.7L299.5,475.8z"/>
	</g>
</g>
</svg>
