<?xml version="1.0" encoding="utf-8"?>
<!-- Generator: Adobe Illustrator 19.0.0, SVG Export Plug-In . SVG Version: 6.00 Build 0)  -->
<svg version="1.1" id="Layer_1" xmlns="http://www.w3.org/2000/svg" xmlns:xlink="http://www.w3.org/1999/xlink" x="0px" y="0px"
	 viewBox="-93 5 512 512" style="enable-background:new -93 5 512 512;" xml:space="preserve">
<style type="text/css">
	.st0{fill:#FFFFFF;}
</style>
<g>
	<g>
		<path class="st0" d="M345.4,149.8c-0.4-0.6-0.9-1.1-1.4-1.6s-1-1-1.6-1.4C296.2,101.4,232.8,73.3,163,73.3S29.8,101.4-16.4,146.9
			c-0.6,0.4-1.1,0.9-1.6,1.4s-1,1-1.4,1.6C-64.9,196.1-93,259.4-93,329.3v102.4c0,9.4,7.6,17.1,17.1,17.1h477.9
			c9.4,0,17.1-7.6,17.1-17.1V329.3C419,259.4,390.9,196.1,345.4,149.8z M384.9,414.6H-58.9v-68.3h17.1c9.4,0,17.1-7.6,17.1-17.1
			s-7.6-17.1-17.1-17.1h-16.4c3.7-48.4,23-92.4,52.8-127.2l11.5,11.5c3.3,3.3,7.7,5,12.1,5c4.4,0,8.7-1.7,12.1-5
			c6.7-6.7,6.7-17.5,0-24.1l-11.5-11.5C53.5,131,97.6,111.7,145.9,108v16.4c0,9.4,7.6,17.1,17.1,17.1s17.1-7.6,17.1-17.1v-16.4
			c48.4,3.7,92.4,23,127.2,52.8l-11.5,11.5c-6.7,6.7-6.7,17.5,0,24.1c3.3,3.3,7.7,5,12.1,5s8.7-1.7,12.1-5l11.5-11.5
			c29.8,34.8,49.1,78.8,52.8,127.2h-16.4c-9.4,0-17.1,7.6-17.1,17.1c0,9.4,7.6,17.1,17.1,17.1h17.1L384.9,414.6L384.9,414.6z"/>
	</g>
</g>
<g>
	<g>
		<path class="st0" d="M163,175.7c-84.7,0-153.6,68.9-153.6,153.6c0,9.4,7.6,17.1,17.1,17.1h273.1c9.4,0,17.1-7.6,17.1-17.1
			C316.6,244.6,247.7,175.7,163,175.7z M44.7,312.2c8.3-57.8,58.2-102.4,118.3-102.4c60.1,0,109.9,44.6,118.3,102.4H44.7z"/>
	</g>
</g>
</svg>
