<?xml version="1.0" encoding="utf-8"?>
<!-- Generator: Adobe Illustrator 19.0.0, SVG Export Plug-In . SVG Version: 6.00 Build 0)  -->
<svg version="1.1" id="Layer_1" xmlns="http://www.w3.org/2000/svg" xmlns:xlink="http://www.w3.org/1999/xlink" x="0px" y="0px"
	 viewBox="-93 5 512 512" style="enable-background:new -93 5 512 512;" xml:space="preserve">
<style type="text/css">
	.st0{fill:#FFFFFF;}
</style>
<g>
	<g>
		<path class="st0" d="M414.1,488.4L175.3,249.6c0,0,0,0,0,0c0,0,0,0,0,0L-64.4,9.9c-4.8-4.8-12-6.2-18.2-3.6
			C-88.9,8.9-93,15-93,21.7v478.5c0,9.2,7.5,16.7,16.7,16.7h478.5c6.8,0,12.9-4.1,15.5-10.3C420.3,500.4,418.9,493.2,414.1,488.4z
			 M-59.5,483.5L-59.5,483.5V62.2l57.3,57.3L-22,139.2c-6.5,6.5-6.5,17.1,0,23.7c3.3,3.3,7.6,4.9,11.8,4.9s8.6-1.6,11.8-4.9
			l19.7-19.7l47.3,47.3l-11.8,11.8c-6.5,6.5-6.5,17.1,0,23.7c3.3,3.3,7.6,4.9,11.8,4.9s8.6-1.6,11.8-4.9l11.8-11.8l47.3,47.3
			l-19.7,19.7c-6.5,6.5-6.5,17.1,0,23.7c3.3,3.3,7.6,4.9,11.8,4.9s8.6-1.6,11.8-4.9l19.7-19.7l47.3,47.3L199,344.3
			c-6.5,6.5-6.5,17.1,0,23.7c3.3,3.3,7.6,4.9,11.8,4.9s8.6-1.6,11.8-4.9l11.8-11.8l47.3,47.3l-19.7,19.7c-6.5,6.5-6.5,17.1,0,23.7
			c3.3,3.3,7.6,4.9,11.8,4.9s8.6-1.6,11.8-4.9l19.7-19.7l56.3,56.3L-59.5,483.5L-59.5,483.5z"/>
	</g>
</g>
<g>
	<g>
		<path class="st0" d="M171.6,388L36,252.4c-4.8-4.8-12-6.2-18.2-3.6c-6.3,2.6-10.3,8.7-10.3,15.5v135.6c0,9.2,7.5,16.7,16.7,16.7
			h135.6c6.8,0,12.9-4.1,15.5-10.3C177.8,400,176.4,392.8,171.6,388z M40.9,383.1v-78.4l78.5,78.4H40.9z"/>
	</g>
</g>
</svg>
