<?xml version="1.0" encoding="utf-8"?>
<!-- Generator: Adobe Illustrator 19.0.0, SVG Export Plug-In . SVG Version: 6.00 Build 0)  -->
<svg version="1.1" id="Layer_1" xmlns="http://www.w3.org/2000/svg" xmlns:xlink="http://www.w3.org/1999/xlink" x="0px" y="0px"
	 viewBox="-93 5 512 512" style="enable-background:new -93 5 512 512;" xml:space="preserve">
<style type="text/css">
	.st0{fill:#FFFFFF;}
</style>
<g>
	<g>
		<path class="st0" d="M414.1,488.5l-80.3-80.3c0,0,0,0,0,0L15.8,90.2c0,0,0,0,0,0L-64.5,9.9c-3.3-3.3-7.7-5-12.2-4.9
			c-1.2,0-2.4,0.2-3.6,0.5c-0.8,0.2-1.6,0.5-2.4,0.8C-88.9,8.9-93,14.9-93,21.7v111v289.7v77.9c0,9.2,7.5,16.7,16.7,16.7H1.6h289.7
			h111c6.8,0,12.8-4.1,15.4-10.3C420.3,500.5,418.9,493.3,414.1,488.5z M-59.6,62l38.9,38.9c-11.6,7.9-24.9,12.9-38.9,14.7V62z
			 M-15.1,483.6h-44.5v-44.5h44.5C-15.1,439.1-15.1,483.6-15.1,483.6z M274.8,483.6H18.3v-61.2c0-9.2-7.5-16.7-16.7-16.7h-61.2
			V149.2c23-2.1,44.6-10.5,62.8-24.3l295.9,295.9C285.3,439,276.9,460.7,274.8,483.6z M308.4,483.6c1.7-14,6.8-27.3,14.7-38.9
			l38.9,38.9H308.4z"/>
	</g>
</g>
</svg>
