<?xml version="1.0" encoding="utf-8"?>
<!-- Generator: Adobe Illustrator 19.0.0, SVG Export Plug-In . SVG Version: 6.00 Build 0)  -->
<svg version="1.1" id="f785626e-4813-441a-9323-8af1423a66c9"
	 xmlns="http://www.w3.org/2000/svg" xmlns:xlink="http://www.w3.org/1999/xlink" x="0px" y="0px" viewBox="205 5 1021.5 783"
	 style="enable-background:new 205 5 1021.5 783;" xml:space="preserve">
<style type="text/css">
	.st0{fill:#EEEDFF;}
	.st1{fill:#EDDEFF;enable-background:new    ;}
	.st2{fill:#AEA6BA;enable-background:new    ;}
	.st3{fill:#2F2E41;}
	.st4{fill:#FF63BE;}
	.st5{fill:#A352FF;}
	.st6{opacity:0.1;fill:#A352FF;enable-background:new    ;}
	.st7{opacity:0.1;enable-background:new    ;}
	.st8{fill:#FFCC38;}
	.st9{opacity:0.2;fill:#BDB7FF;enable-background:new    ;}
	.st10{fill:#6C63FF;}
	.st11{fill:#3F3D56;}
	.st12{fill:#F0F0F0;}
	.st13{fill:#BDB7FF;}
	.st14{fill:#FFFFFF;}
	.st15{fill:#FAFCFC;}
</style>
<title>travel_plans</title>
<ellipse class="st0" cx="1072" cy="762.5" rx="154.5" ry="25.5"/>
<path class="st1" d="M1202.7,668.6c-0.3,54.8-33,73.7-73.2,73.5c-0.9,0-1.9,0-2.8,0c-1.9-0.1-3.7-0.1-5.5-0.3
	c-36.2-2.8-64.3-23-64-74c0.3-52.7,68-118.9,73.1-123.8c0,0,0,0,0,0c0.2-0.2,0.3-0.3,0.3-0.3S1203,613.8,1202.7,668.6z"/>
<path class="st2" d="M1126.9,733.7l26.8-37l-26.9,41.1l-0.1,4.3c-1.9-0.1-3.7-0.1-5.5-0.3l3.2-54.8l0-0.4l0-0.1l0.3-5.2l-26.5-41.5
	l26.6,37.6l0.1,1.1l2.4-41.4l-22.7-42.9l23,35.6l2.7-85.8l0-0.3l0,0.3l-0.7,67.7l22.9-26.7l-23.1,32.5l-0.8,37.1l21.5-35.5
	l-21.6,40.9l-0.4,20.6l31.2-49.4l-31.3,56.6L1126.9,733.7z"/>
<circle class="st3" cx="1057.5" cy="203.4" r="48.7"/>
<circle class="st4" cx="1050.2" cy="220.4" r="33.1"/>
<path class="st4" d="M1030.5,238.3c0,0,14.3,33.1,7.1,36.6s-10.7,19.7-10.7,19.7l18.8,39.3l25.9,16.1h15.2c0,0,15.2-67.9,9.8-76
	s-25-12.5-25-12.5s-4.5-10.7-2.7-20.6C1070.8,231.1,1030.5,238.3,1030.5,238.3z"/>
<path class="st4" d="M1009.1,332.1l-23.2-18.8c0,0-42-29.5-36.6-8s29.5,23.2,29.5,23.2l40.2,32.2L1009.1,332.1z"/>
<path class="st5" d="M1007.3,430.4c0,0-10.7,44.7,0,105.5l4.5,24.1c0,0,0,18.8,4.5,25.9c0,0,11.6,106.4,17.9,106.4
	c6.3,0,25.9-3.6,27.7-6.3S1027,425.9,1027,425.9L1007.3,430.4z"/>
<path class="st6" d="M1007.3,434.9c0,0-10.7,44.7,0,105.5l4.5,24.1c0,0,0,18.8,4.5,25.9c0,0,11.6,106.4,17.9,106.4
	c6.3,0,25.9-3.6,27.7-6.3S1027,430.4,1027,430.4L1007.3,434.9z"/>
<path class="st3" d="M1036.7,685.1l-13.8,51.3c0,0-27.7,16.3-10.6,19.5s34.2-3.3,34.2-3.3l8.1-23.6l8.1-4.9v25.2h2.4l5.7-33.4
	c0,0-0.8-17.1-5.7-18.7s-7.3-10.6-7.3-10.6L1036.7,685.1z"/>
<path class="st7" d="M1036.7,685.1l-13.8,51.3c0,0-27.7,16.3-10.6,19.5s34.2-3.3,34.2-3.3l8.1-23.6l8.1-4.9v25.2h2.4l5.7-33.4
	c0,0-0.8-17.1-5.7-18.7s-7.3-10.6-7.3-10.6L1036.7,685.1z"/>
<path class="st5" d="M1003.7,428.6c0,0,7.1,26.8,9.8,31.3c0,0,3.6,76,15.2,101.9l12.5,33.1c0,0,20.6,97.4,15.2,108.1
	c0,0,27.7,6.3,29.5,0c0,0-0.9-51.8,1.8-59s7.1-46.5-14.3-75.1v-86.7c0,0,34-28.6,14.3-65.2S1003.7,428.6,1003.7,428.6z"/>
<path class="st3" d="M1059.1,697.6l-15.2,56.3c0,0-30.4,17.9-11.6,21.4c18.8,3.6,37.5-3.6,37.5-3.6l8.9-25.9l8.9-5.4v27.7h2.7
	l6.3-36.6c0,0-0.9-18.8-6.3-20.6s-8-11.6-8-11.6L1059.1,697.6z"/>
<path class="st8" d="M1039.6,268.2c0,0-22.5,12.9-22.5,13.8s2.7,15.2,2.7,15.2s-27.7,27.7-8.9,51.8c0,0,6.3,4.5,6.3,18.8v14.3
	c0,0-52.7,33.1-39.3,43.8s27.7,8.9,32.2,15.2s30.4-5.4,35.7-7.1s6.3-3.6,10.7,2.7s29.5-4.5,29.5-4.5s16.1-4.5,19.7-4.5
	c2.2,0,4.4-0.6,6.3-1.8l-38.4-39.3l19.2-48.7c0,0-56.8-35.3-56.8-45.1S1039.6,268.2,1039.6,268.2z"/>
<path class="st4" d="M1074.3,270.4c0,0-11.6,16.1-2.7,38.4s23.2,48.3,23.2,48.3l-22.3,7.1H1052c0,0-42.9-7.1-38.4,8.9
	s34.9,8.9,34.9,8.9h17.9c0,0,40.2,4.5,45.6-2.7c0,0,14.3-0.9,8-29.5c-6.3-28.6-24.5-77.6-24.5-77.6L1074.3,270.4z"/>
<ellipse class="st3" cx="1043.8" cy="189.7" rx="31.2" ry="15.9"/>
<ellipse class="st4" cx="1082.8" cy="218.1" rx="4.5" ry="9.8"/>
<circle class="st3" cx="1079.3" cy="160.1" r="26.8"/>
<circle class="st9" cx="508" cy="172" r="110"/>
<circle class="st9" cx="295" cy="478" r="65"/>
<circle class="st9" cx="712" cy="478" r="133"/>
<path class="st10" d="M271.1,263.1l-2-0.4c0.4-2,0.9-3.9,1.3-5.9l1.9,0.5C272,259.2,271.5,261.1,271.1,263.1z"/>
<path class="st10" d="M900.9,246.6c-1-3.8-2.1-7.7-3.3-11.4l1.9-0.6c1.2,3.8,2.3,7.7,3.3,11.5L900.9,246.6z M275.3,245.7l-1.9-0.5
	c1-3.8,2.2-7.7,3.4-11.5l1.9,0.6C277.5,238,276.4,241.9,275.3,245.7L275.3,245.7z M893.9,223.8c-1.3-3.7-2.7-7.5-4.1-11.1l1.9-0.7
	c1.4,3.7,2.8,7.5,4.2,11.2L893.9,223.8z M282.5,222.9l-1.9-0.7c1.3-3.8,2.8-7.5,4.2-11.3l1.9,0.7
	C285.2,215.4,283.8,219.1,282.5,222.9z M885.2,201.7c-1.6-3.6-3.2-7.3-5-10.8l1.8-0.9c1.7,3.6,3.4,7.2,5,10.9L885.2,201.7z
	 M291.3,200.7l-1.8-0.8c1.6-3.6,3.3-7.3,5-10.9l1.8,0.9C294.6,193.4,292.9,197.1,291.3,200.7z M874.9,180.3c-1.8-3.5-3.8-7-5.7-10.4
	l1.7-1c2,3.4,3.9,7,5.8,10.5L874.9,180.3z M301.7,179.2l-1.8-0.9c1.9-3.5,3.8-7.1,5.8-10.5l1.7,1
	C305.5,172.2,303.5,175.7,301.7,179.2z M863,159.6c-2.1-3.4-4.3-6.7-6.5-10l1.7-1.1c2.2,3.3,4.4,6.7,6.5,10L863,159.6z M313.6,158.6
	l-1.7-1.1c2.1-3.4,4.3-6.7,6.6-10l1.7,1.1C318,151.9,315.8,155.2,313.6,158.6z M849.7,139.9c-2.3-3.2-4.7-6.4-7.2-9.5l1.6-1.2
	c2.5,3.1,4.9,6.3,7.3,9.5L849.7,139.9z M327.1,138.9l-1.6-1.2c2.4-3.2,4.8-6.4,7.3-9.5l1.6,1.2C331.9,132.5,329.4,135.7,327.1,138.9
	z M834.9,121.2c-2.6-3-5.2-6-7.9-8.9l1.5-1.4c2.7,2.9,5.4,6,7.9,9L834.9,121.2z M341.9,120.2l-1.5-1.3c2.6-3,5.3-6,8-9l1.5,1.4
	C347.2,114.2,344.5,117.2,341.9,120.2L341.9,120.2z M818.8,103.6c-2.8-2.8-5.6-5.6-8.5-8.3l1.4-1.5c2.9,2.7,5.8,5.5,8.6,8.4
	L818.8,103.6z M358.1,102.7l-1.4-1.4c2.8-2.8,5.7-5.6,8.6-8.4l1.4,1.5C363.8,97.1,360.9,99.9,358.1,102.7z M801.5,87.3
	c-3-2.6-6-5.2-9.1-7.7l1.3-1.6c3.1,2.5,6.2,5.1,9.2,7.7L801.5,87.3z M375.5,86.4l-1.3-1.5c3-2.6,6.1-5.2,9.2-7.7l1.3,1.6
	C381.6,81.2,378.5,83.8,375.5,86.4z M783,72.2c-3.2-2.4-6.4-4.7-9.6-7l1.1-1.6c3.3,2.3,6.5,4.7,9.7,7.1L783,72.2z M394.1,71.4
	l-1.2-1.6c3.2-2.4,6.5-4.7,9.7-7l1.1,1.6C400.5,66.7,397.2,69.1,394.1,71.4z M763.4,58.6c-3.3-2.1-6.7-4.3-10.1-6.3l1-1.7
	c3.4,2,6.9,4.2,10.2,6.3L763.4,58.6z M413.6,57.9l-1.1-1.7c3.4-2.1,6.8-4.3,10.2-6.3l1,1.7C420.4,53.6,417,55.7,413.6,57.9
	L413.6,57.9z M742.9,46.4c-3.5-1.9-7-3.8-10.6-5.5l0.9-1.8c3.6,1.8,7.2,3.7,10.6,5.6L742.9,46.4z M434.1,45.8l-1-1.8
	c3.5-1.9,7.1-3.7,10.6-5.5l0.9,1.8C441.2,42.1,437.6,43.9,434.1,45.8z M721.6,35.7c-3.6-1.6-7.3-3.2-11-4.7l0.8-1.9
	c3.7,1.5,7.4,3.1,11,4.8L721.6,35.7z M455.5,35.3l-0.8-1.8c3.6-1.6,7.3-3.2,11-4.7l0.8,1.9C462.8,32.1,459.1,33.6,455.5,35.3z
	 M699.5,26.7c-3.7-1.4-7.5-2.7-11.3-3.9l0.6-1.9c3.8,1.2,7.6,2.6,11.4,3.9L699.5,26.7z M477.5,26.3l-0.7-1.9
	c3.7-1.4,7.5-2.7,11.3-3.9l0.6,1.9C485,23.7,481.2,25,477.5,26.3z M676.7,19.3c-3.8-1.1-7.7-2.1-11.5-3l0.5-1.9
	c3.9,0.9,7.8,2,11.6,3.1L676.7,19.3z M500.2,19l-0.5-1.9c3.8-1.1,7.7-2.1,11.6-3l0.5,1.9C507.9,17,504,18,500.2,19z M653.6,13.6
	c-3.9-0.8-7.8-1.5-11.7-2.2l0.3-2c3.9,0.7,7.9,1.4,11.8,2.2L653.6,13.6z M523.3,13.5l-0.4-2c3.9-0.8,7.9-1.5,11.8-2.2l0.3,2
	C531.2,11.9,527.2,12.7,523.3,13.5z M630.1,9.7c-3.9-0.5-7.9-1-11.8-1.3l0.2-2c4,0.4,8,0.8,11.9,1.3L630.1,9.7z M546.9,9.6l-0.3-2
	c3.9-0.5,8-0.9,11.9-1.3l0.2,2C554.8,8.7,550.8,9.1,546.9,9.6z M606.3,7.5c-3.9-0.2-7.9-0.4-11.9-0.4l0-2c4,0.1,8,0.2,12,0.5
	L606.3,7.5z M570.6,7.5l-0.1-2c4-0.2,8-0.4,12-0.4l0,2C578.6,7.1,574.5,7.3,570.6,7.5z"/>
<path class="st10" d="M905.1,264.2c-0.4-2-0.8-3.9-1.3-5.8l1.9-0.4c0.4,2,0.9,3.9,1.3,5.9L905.1,264.2z"/>
<path class="st10" d="M907.8,394.6l-2-0.4c0.4-2,0.8-3.9,1.1-5.9l2,0.4C908.6,390.7,908.2,392.6,907.8,394.6z"/>
<path class="st10" d="M588,657c-2.2,0-4.3,0-6.5-0.1l0-2c4,0.1,7.9,0.1,11.9,0l0,2C591.6,657,589.8,657,588,657z M605.4,656.5
	l-0.1-2c4-0.2,7.9-0.5,11.9-0.8l0.2,2C613.4,656,609.4,656.3,605.4,656.5z M569.5,656.5c-4-0.2-8-0.5-11.9-0.9l0.2-2
	c3.9,0.4,7.9,0.7,11.9,0.9L569.5,656.5z M629.2,654.4l-0.3-2c3.9-0.5,7.9-1.1,11.8-1.7l0.3,2C637.2,653.3,633.2,653.9,629.2,654.4
	L629.2,654.4z M545.7,654.3c-4-0.5-7.9-1.1-11.8-1.8l0.3-2c3.9,0.6,7.8,1.2,11.8,1.7L545.7,654.3z M652.8,650.6l-0.4-2
	c3.9-0.8,7.8-1.6,11.6-2.6l0.5,1.9C660.7,648.9,656.8,649.8,652.8,650.6z M522.1,650.3c-3.9-0.8-7.8-1.7-11.7-2.6l0.5-1.9
	c3.8,0.9,7.7,1.8,11.6,2.6L522.1,650.3z M676.1,645l-0.5-1.9c3.8-1.1,7.6-2.2,11.4-3.4l0.6,1.9C683.8,642.7,679.9,643.9,676.1,645
	L676.1,645z M498.9,644.7c-3.8-1.1-7.7-2.3-11.5-3.5l0.6-1.9c3.8,1.2,7.6,2.4,11.4,3.5L498.9,644.7z M698.9,637.7l-0.7-1.9
	c3.7-1.3,7.4-2.8,11.1-4.2l0.7,1.9C706.3,634.9,702.6,636.3,698.9,637.7L698.9,637.7z M476.1,637.3c-3.7-1.4-7.5-2.8-11.2-4.3
	l0.8-1.9c3.7,1.5,7.4,2.9,11.1,4.3L476.1,637.3z M721,628.7l-0.8-1.8c3.6-1.6,7.2-3.3,10.7-5l0.9,1.8
	C728.3,625.4,724.6,627.1,721,628.7L721,628.7z M453.9,628.2c-3.6-1.6-7.3-3.4-10.8-5.1l0.9-1.8c3.5,1.8,7.2,3.5,10.8,5.1
	L453.9,628.2z M742.4,618.2l-0.9-1.8c3.5-1.9,7-3.8,10.3-5.8l1,1.7C749.4,614.3,745.9,616.3,742.4,618.2L742.4,618.2z M432.4,617.5
	c-3.5-1.9-7-3.9-10.4-5.9l1-1.7c3.4,2,6.9,4,10.4,5.9L432.4,617.5z M763,606.1l-1.1-1.7c3.3-2.1,6.6-4.3,9.9-6.6l1.1,1.6
	C769.7,601.7,766.4,604,763,606.1L763,606.1z M411.8,605.3c-3.3-2.1-6.7-4.4-9.9-6.7l1.1-1.6c3.2,2.3,6.6,4.5,9.9,6.6L411.8,605.3z
	 M782.7,592.5l-1.2-1.6c3.2-2.4,6.3-4.8,9.4-7.3l1.3,1.6C789.1,587.7,785.9,590.1,782.7,592.5L782.7,592.5z M392.2,591.7
	c-3.2-2.4-6.3-4.9-9.4-7.4l1.3-1.6c3.1,2.5,6.2,5,9.4,7.3L392.2,591.7z M801.3,577.5L800,576c3-2.6,6-5.3,8.8-7.9l1.4,1.5
	C807.3,572.2,804.3,574.9,801.3,577.5L801.3,577.5z M373.6,576.6c-3-2.6-6-5.3-8.9-8l1.4-1.5c2.9,2.7,5.8,5.4,8.8,8L373.6,576.6z
	 M818.8,561.2l-1.4-1.4c2.8-2.8,5.6-5.7,8.2-8.6l1.5,1.4C824.4,555.5,821.6,558.4,818.8,561.2z M356.2,560.2
	c-2.8-2.8-5.6-5.7-8.3-8.7l1.5-1.4c2.7,2.9,5.4,5.8,8.2,8.6L356.2,560.2z M835.1,543.7l-1.5-1.3c2.6-3,5.1-6.1,7.6-9.2l1.6,1.3
	C840.3,537.5,837.7,540.6,835.1,543.7z M340,542.6c-2.6-3-5.1-6.1-7.6-9.2l1.6-1.2c2.5,3.1,5,6.2,7.6,9.2L340,542.6z M850,525
	l-1.6-1.2c2.4-3.2,4.7-6.4,6.9-9.7l1.6,1.1C854.8,518.5,852.4,521.8,850,525z M325.1,523.8c-2.4-3.2-4.7-6.5-6.9-9.8l1.7-1.1
	c2.2,3.3,4.5,6.5,6.9,9.7L325.1,523.8z M863.6,505.2l-1.7-1.1c2.1-3.3,4.2-6.8,6.2-10.2l1.7,1C867.8,498.4,865.7,501.9,863.6,505.2z
	 M311.7,504.1c-2.1-3.4-4.2-6.8-6.2-10.2l1.7-1c2,3.4,4,6.8,6.1,10.2L311.7,504.1z M875.7,484.5l-1.8-0.9c1.9-3.5,3.7-7.1,5.4-10.6
	l1.8,0.9C879.4,477.4,877.5,481,875.7,484.5z M299.7,483.4c-1.9-3.5-3.7-7.1-5.4-10.7l1.8-0.9c1.7,3.5,3.5,7.1,5.4,10.6L299.7,483.4
	z M886.2,463l-1.8-0.8c1.6-3.6,3.2-7.3,4.6-11l1.9,0.7C889.3,455.7,887.8,459.4,886.2,463L886.2,463z M289.3,461.9
	c-1.6-3.6-3.1-7.3-4.6-11l1.9-0.7c1.4,3.7,3,7.3,4.6,10.9L289.3,461.9z M895.1,440.7l-1.9-0.7c1.3-3.7,2.6-7.5,3.8-11.3l1.9,0.6
	C897.7,433.2,896.4,437,895.1,440.7z M280.6,439.7c-1.3-3.7-2.6-7.6-3.8-11.4l1.9-0.6c1.2,3.8,2.4,7.6,3.8,11.3L280.6,439.7z
	 M902.3,417.9l-1.9-0.5c1-3.8,2-7.7,2.9-11.5l1.9,0.5C904.3,410.2,903.3,414.1,902.3,417.9z M273.4,416.9c-1-3.8-2-7.7-2.9-11.6
	l1.9-0.5c0.9,3.8,1.9,7.7,2.9,11.5L273.4,416.9z"/>
<path class="st10" d="M268,393.4c-0.4-2-0.7-3.9-1.1-5.9l2-0.3c0.3,2,0.7,3.9,1.1,5.9L268,393.4z"/>
<path class="st10" d="M751.3,395.5l-1.9-0.7c0.7-1.8,1.4-3.7,2.1-5.6l1.9,0.7C752.7,391.8,752,393.7,751.3,395.5z"/>
<path class="st10" d="M588,506.5c-2.4,0-4.8,0-7.2-0.1l0.1-2c3.9,0.2,8,0.2,11.9,0.1l0.1,2C591.2,506.5,589.6,506.5,588,506.5z
	 M604.9,505.7l-0.2-2c3.9-0.4,7.9-0.9,11.8-1.5l0.3,2C612.9,504.8,608.9,505.3,604.9,505.7z M568.8,505.5c-4-0.4-8-1-11.9-1.7l0.4-2
	c3.9,0.7,7.9,1.3,11.8,1.7L568.8,505.5z M628.6,501.8l-0.5-1.9c3.9-0.9,7.7-2,11.5-3.1l0.6,1.9C636.4,499.8,632.5,500.8,628.6,501.8
	L628.6,501.8z M545.1,501.2c-3.9-1-7.8-2.1-11.6-3.3l0.6-1.9c3.8,1.2,7.6,2.3,11.4,3.3L545.1,501.2z M651.6,494.6l-0.7-1.9
	c3.7-1.4,7.4-3,10.9-4.7l0.9,1.8C659.1,491.6,655.3,493.2,651.6,494.6L651.6,494.6z M522.2,493.8c-3.7-1.5-7.4-3.2-11-4.9l0.9-1.8
	c3.6,1.7,7.2,3.4,10.9,4.8L522.2,493.8z M673.4,484.4l-1-1.7c3.5-1.9,6.9-4,10.2-6.2l1.1,1.7C680.4,480.3,676.9,482.4,673.4,484.4z
	 M500.6,483.2c-3.5-2-6.9-4.1-10.2-6.4l1.1-1.7c3.3,2.2,6.7,4.3,10.1,6.3L500.6,483.2z M693.6,471.2l-1.2-1.6
	c3.2-2.4,6.3-4.9,9.3-7.5l1.3,1.5C699.9,466.3,696.8,468.8,693.6,471.2z M480.6,469.8c-3.2-2.5-6.3-5-9.3-7.7l1.3-1.5
	c2.9,2.6,6,5.2,9.2,7.6L480.6,469.8z M711.8,455.4l-1.4-1.4c2.8-2.8,5.5-5.7,8.2-8.7l1.5,1.3C717.4,449.7,714.6,452.6,711.8,455.4
	L711.8,455.4z M462.6,453.8c-2.8-2.9-5.5-5.8-8.1-8.9l1.5-1.3c2.6,3,5.3,6,8,8.8L462.6,453.8z M727.6,437.3l-1.6-1.2
	c2.4-3.1,4.7-6.4,6.9-9.7l1.7,1.1C732.4,430.9,730.1,434.2,727.6,437.3z M447,435.5c-2.4-3.2-4.7-6.5-6.8-9.9l1.7-1.1
	c2.1,3.3,4.4,6.6,6.8,9.8L447,435.5z M740.9,417.2l-1.7-1c1.9-3.4,3.8-7,5.5-10.6l1.8,0.9C744.7,410.2,742.9,413.8,740.9,417.2
	L740.9,417.2z M434,415.2c-1.9-3.5-3.7-7.1-5.4-10.8l1.8-0.8c1.7,3.6,3.5,7.2,5.4,10.6L434,415.2z"/>
<path class="st10" d="M423.9,393.3c-0.7-1.9-1.4-3.8-2-5.7l1.9-0.6c0.6,1.9,1.3,3.8,2,5.6L423.9,393.3z"/>
<path class="st10" d="M427,266.3l-1.9-0.7c0.7-1.9,1.5-3.7,2.3-5.6l1.8,0.8C428.5,262.6,427.7,264.5,427,266.3z"/>
<path class="st10" d="M434.5,250l-1.8-0.9c1.9-3.6,3.9-7.1,6.1-10.6l1.7,1.1C438.4,243,436.4,246.5,434.5,250z M739.9,247.1
	c-1.9-3.5-4-7-6.2-10.3l1.7-1.1c2.2,3.4,4.3,6.9,6.3,10.4L739.9,247.1z M447.2,229.6l-1.6-1.2c2.4-3.3,4.9-6.5,7.5-9.6l1.5,1.3
	C452.1,223.1,449.6,226.3,447.2,229.6z M726.8,226.9c-2.4-3.2-4.9-6.3-7.6-9.4l1.5-1.3c2.6,3.1,5.2,6.2,7.6,9.5L726.8,226.9z
	 M462.6,211.1l-1.4-1.4c2.8-2.9,5.7-5.8,8.7-8.5l1.3,1.5C468.3,205.3,465.4,208.2,462.6,211.1z M711.1,208.7
	c-2.8-2.8-5.8-5.6-8.8-8.2l1.3-1.5c3,2.7,6,5.5,8.9,8.3L711.1,208.7z M480.4,194.9l-1.2-1.6c3.2-2.5,6.5-4.9,9.8-7.2l1.1,1.7
	C486.8,190,483.6,192.4,480.4,194.9z M693,192.8c-3.2-2.4-6.5-4.8-9.8-7l1.1-1.7c3.4,2.2,6.7,4.6,9.9,7L693,192.8z M500.3,181.3
	l-1-1.7c3.5-2,7.1-4,10.7-5.8l0.9,1.8C507.3,177.3,503.7,179.3,500.3,181.3z M672.8,179.6c-3.5-2-7.1-3.8-10.7-5.5l0.9-1.8
	c3.6,1.7,7.3,3.6,10.8,5.6L672.8,179.6z M521.8,170.6l-0.8-1.8c3.7-1.5,7.6-3,11.4-4.3l0.6,1.9C529.3,167.6,525.5,169,521.8,170.6z
	 M651.1,169.3c-3.7-1.5-7.5-2.8-11.4-4l0.6-1.9c3.9,1.2,7.7,2.6,11.5,4L651.1,169.3z M544.7,163l-0.5-1.9c3.9-1,7.9-1.9,11.9-2.6
	l0.4,2C552.5,161.1,548.5,162,544.7,163z M628.1,162.2c-3.9-0.9-7.9-1.7-11.8-2.4l0.3-2c4,0.7,8,1.5,11.9,2.4L628.1,162.2z
	 M568.3,158.6l-0.2-2c4-0.5,8.1-0.8,12.1-0.9l0.1,2C576.3,157.8,572.3,158.2,568.3,158.6z M604.4,158.3c-4-0.4-8-0.6-12-0.7l0-2
	c4,0.1,8.1,0.3,12.2,0.7L604.4,158.3z"/>
<path class="st10" d="M747.8,263.3c-0.8-1.8-1.6-3.7-2.4-5.5l1.8-0.8c0.8,1.8,1.7,3.7,2.5,5.5L747.8,263.3z"/>
<path class="st11" d="M773.6,330.8c-6.3,0-11.4,5-11.4,11.3s5,11.4,11.3,11.4c6.3,0,11.4-5,11.4-11.3c0-3-1.2-5.9-3.3-8.1
	C779.5,332,776.6,330.8,773.6,330.8z"/>
<path class="st11" d="M728.4,330.8c-6.3,0-11.4,5-11.4,11.3s5,11.4,11.3,11.4c6.3,0,11.4-5,11.4-11.3c0-3-1.2-5.9-3.3-8.1
	C734.2,332,731.4,330.8,728.4,330.8z"/>
<path class="st11" d="M751,268c-31.5,0-57,25.5-57,57s25.5,57,57,57s57-25.5,57-57S782.5,268,751,268z M762.1,291.8
	c3,0,5.5,2.4,5.5,5.4c0,0,0,0.1,0,0.1c0,3.1-2.4,5.6-5.5,5.6s-5.6-2.4-5.6-5.5S758.9,291.8,762.1,291.8
	C762,291.8,762.1,291.8,762.1,291.8z M728.4,358.2c-8.9,0-16.2-7.2-16.2-16.1s7.2-16.2,16.1-16.2s16.2,7.2,16.2,16.1c0,0,0,0,0,0
	C744.5,351,737.3,358.2,728.4,358.2L728.4,358.2z M753.8,326v15.6c0,1.5-1.2,2.8-2.8,2.8c-1.5,0-2.8-1.2-2.8-2.8v-11.4
	c0-2.3-2.8-2.8-10.6-7.3c-1-0.6-3.2-1.7-3.2-4.7c0-1.5,0.6-2.8,1.6-3.9l12.4-12c2.1-2.1,5.5-2.1,7.7,0c0.4,0.4,0.7,0.8,0.9,1.2
	l5.1,10.4h8.3c1.5,0,2.8,1.2,2.8,2.8c0,1.5-1.2,2.8-2.8,2.8h-9.9c-1.9,0-3.3-4-6.6-8.9l-8.5,8.9C748.5,321.9,753.8,323.8,753.8,326
	L753.8,326z M773.6,358.2c-8.9,0-16.1-7.2-16.1-16.1s7.2-16.1,16.1-16.1s16.1,7.2,16.1,16.1C789.7,351,782.5,358.2,773.6,358.2
	L773.6,358.2z"/>
<path class="st11" d="M913,268c-31.5,0-57,25.5-57,57s25.5,57,57,57s57-25.5,57-57S944.5,268,913,268z M897.9,308.7
	c4.9,0.1,8.8,4.2,8.7,9.1s-4.2,8.8-9.1,8.7c-4.8-0.1-8.7-4-8.7-8.9C888.9,312.7,892.9,308.7,897.9,308.7
	C897.9,308.7,897.9,308.7,897.9,308.7L897.9,308.7z M946.2,347.2h-6v-8.9h-54.4v8.9h-6v-44.3h6v26.6H910v-20.7h24.2
	c6.6-0.1,12,5.2,12.1,11.8c0,0,0,0,0,0V347.2z"/>
<path class="st11" d="M282.1,309.8h-17c-0.4,0-0.7,0.3-0.7,0.7v24.2c0,0.4,0.3,0.7,0.7,0.7h17c1.5,0,2.8-1.2,2.8-2.8v-20.1
	C284.8,311,283.6,309.8,282.1,309.8z"/>
<path class="st11" d="M278.3,340.6c-2.3,0.2-4,2.2-3.8,4.5c0.2,2.3,2.2,4,4.5,3.8c2-0.2,3.6-1.8,3.8-3.8c0.2-2.3-1.5-4.3-3.8-4.5
	C278.7,340.6,278.5,340.6,278.3,340.6z"/>
<path class="st11" d="M245.1,340.6c-2.3,0.2-4,2.2-3.8,4.5s2.2,4,4.5,3.8c2-0.2,3.6-1.8,3.8-3.8c0.2-2.3-1.5-4.3-3.8-4.5
	C245.5,340.6,245.3,340.6,245.1,340.6z"/>
<path class="st11" d="M258.9,309.8H242c-1.5,0-2.8,1.3-2.8,2.8v20c0,1.5,1.3,2.8,2.8,2.8h16.9c0.4,0,0.7-0.3,0.7-0.7v-24.2
	C259.6,310.1,259.3,309.8,258.9,309.8z"/>
<path class="st11" d="M262,268c-31.5,0-57,25.5-57,57s25.5,57,57,57s57-25.5,57-57S293.5,268,262,268z M289.7,348.2
	c0,3.8-3.1,6.9-6.9,6.9h-41.5c-3.8,0-6.9-3.1-6.9-6.9v-47.8c0-3.1,2.5-5.5,5.5-5.5h44.3c3.1,0,5.5,2.5,5.5,5.5V348.2z"/>
<path class="st11" d="M282.3,299.7h-40.5c-1.3-0.1-2.5,0.9-2.6,2.3s0.9,2.5,2.3,2.6c0.1,0,0.2,0,0.3,0h40.5c1.3,0.1,2.5-0.9,2.6-2.3
	c0.1-1.3-0.9-2.5-2.3-2.6C282.5,299.7,282.4,299.7,282.3,299.7z"/>
<path class="st11" d="M432.6,326.6c-1.1,0-2.1,1.7-2.1,3.8s0.9,3.8,2.1,3.8s2.1-1.7,2.1-3.8S433.8,326.6,432.6,326.6z"/>
<path class="st11" d="M417.4,326.6c-1.1,0-2.1,1.7-2.1,3.8s0.9,3.8,2.1,3.8s2.1-1.7,2.1-3.8S418.5,326.6,417.4,326.6z"/>
<path class="st11" d="M425,268c-31.5,0-57,25.5-57,57s25.5,57,57,57s57-25.5,57-57S456.5,268,425,268z M398.3,323.1l3.1-16.8
	c0.8-4.6,2.9-8.1,6.9-8.1h6l0.3-1.4c0.6-2.5,2.8-4.2,5.4-4.2h9.9c2.5,0,4.7,1.7,5.4,4.2l0.3,1.4h6c3.9,0,5.9,3.5,6.9,8.1v0l3.2,16.8
	c0.1,0.4-0.2,0.7-0.5,0.8c-0.1,0-0.3,0-0.4-0.1l-4.4-2c-0.2-0.1-0.4-0.3-0.4-0.5l-2.8-14.8c-0.5-1.9-1.2-2.8-2.8-2.8h-30.7
	c-1.5,0-2.4,0.9-2.8,2.8l-2.8,14.8c0,0.2-0.2,0.4-0.4,0.5l-4.4,2c-0.3,0.2-0.8,0-0.9-0.3C398.3,323.3,398.3,323.2,398.3,323.1z
	 M459.4,333.8l-9.5,23.5c-4.8,0-9.8-3.8-9.8-3.8c-3.1,1.6-9.2,3-13.7,3.2c-0.5,0-1,0-1.4,0s-0.9,0-1.4,0c-4.5-0.3-10.6-1.7-13.7-3.2
	c0,0-5.1,3.8-9.8,3.8l-9.5-23.5c-0.1-0.4-0.2-0.8-0.2-1.2c0-1.2,0.7-2.3,1.8-2.8l32.2-14.8c0.4-0.2,0.8-0.2,1.2,0l32.2,14.8
	c1.1,0.5,1.8,1.6,1.8,2.8C459.6,333.1,459.5,333.5,459.4,333.8z"/>
<path class="st11" d="M588,268c-31.5,0-57,25.5-57,57s25.5,57,57,57s57-25.5,57-57S619.5,268,588,268z M614.3,330.6
	c-0.6,0-2.5,0-3.1-0.1l-11.2-0.3c-0.1,0-0.2,0.1-0.3,0.2l-16.9,25.2c-0.5,0.8-1.4,1.3-2.3,1.3h-4.1c-1,0-1.3-1-1-1.9l8.7-24.7
	c0.1-0.2,0-0.4-0.2-0.4c0,0-0.1,0-0.1,0l-21.1-0.5c-0.4,0-0.9,0.2-1.1,0.5l-6.5,7.9c-0.5,0.7-1.3,1.1-2.2,1.1h-2.9
	c-0.4,0-0.7-0.3-0.7-0.7c0-0.1,0-0.2,0-0.2l3.4-11.9c0.3-0.7,0.3-1.4,0-2.1l-3.4-11.9c-0.1-0.4,0.1-0.8,0.4-0.9c0.1,0,0.2,0,0.2,0
	h2.9c0.9,0,1.7,0.4,2.2,1.1l6.4,7.8c0.3,0.4,0.7,0.6,1.1,0.5l21.2-0.3c0.2,0,0.3-0.2,0.3-0.3c0,0,0-0.1,0-0.1l-8.7-24.7
	c-0.3-0.9,0-1.9,1-1.9h4.1c0.9,0,1.8,0.5,2.3,1.3l16.8,25.2c0.1,0.1,0.2,0.2,0.3,0.2l11.2-0.3c0.6,0,2.5-0.1,3.1-0.1
	c7.7,0,12.5,2.5,12.5,5.6S621.9,330.6,614.3,330.6z"/>
<path class="st12" d="M270.7,517.1c-6.6,0-12-5.4-12-12s5.4-12,12-12s12,5.4,12,12C282.7,511.8,277.3,517.1,270.7,517.1z
	 M270.7,495.1c-5.5,0-10,4.5-10,10s4.5,10,10,10s10-4.5,10-10C280.7,499.6,276.2,495.1,270.7,495.1z"/>
<path class="st12" d="M523.7,248.1c-6.6,0-12-5.4-12-12s5.4-12,12-12s12,5.4,12,12C535.7,242.8,530.3,248.1,523.7,248.1z
	 M523.7,226.1c-5.5,0-10,4.5-10,10s4.5,10,10,10s10-4.5,10-10C533.7,230.6,529.2,226.1,523.7,226.1z"/>
<path class="st12" d="M747.1,577.5l-13.5-14.4l14.4-13.5l13.5,14.4L747.1,577.5z M735.8,563.1l11.4,12.2l12.2-11.4L748,551.8
	L735.8,563.1z"/>
<circle class="st13" cx="913" cy="325" r="57"/>
<circle class="st13" cx="751.4" cy="325" r="57"/>
<circle class="st13" cx="588" cy="325" r="57"/>
<circle class="st13" cx="425" cy="325" r="57"/>
<circle class="st13" cx="262" cy="325" r="57"/>
<g>
	<g>
		<path class="st14" d="M780.5,310.1c-2.4-5.8-6.5-10.6-11.6-14.1c-5.1-3.5-11.3-5.5-17.9-5.5c-4.4,0-8.6,0.9-12.5,2.5
			c-5.8,2.4-10.6,6.5-14.1,11.6c-3.5,5.1-5.5,11.3-5.5,17.9c0,4.4,0.9,8.6,2.5,12.5c2.4,5.8,6.5,10.6,11.6,14.1
			c5.1,3.5,11.3,5.5,17.9,5.5c4.4,0,8.6-0.9,12.5-2.5c5.8-2.4,10.6-6.5,14.1-11.6c3.5-5.1,5.5-11.3,5.5-17.9
			C783.1,318.2,782.2,313.9,780.5,310.1z M776.6,333.4c-2.1,5-5.6,9.2-10.1,12.2c-4.4,3-9.8,4.8-15.5,4.8c-3.8,0-7.5-0.8-10.8-2.2
			c-5-2.1-9.2-5.6-12.2-10.1c-3-4.4-4.8-9.8-4.8-15.5c0-3.8,0.8-7.5,2.2-10.8c2.1-5,5.6-9.2,10.1-12.2c4.4-3,9.8-4.8,15.5-4.8
			c3.8,0,7.5,0.8,10.8,2.2c5,2.1,9.2,5.6,12.2,10.1c3,4.4,4.8,9.8,4.8,15.5C778.8,326.4,778,330.1,776.6,333.4z"/>
	</g>
</g>
<g>
	<g>
		<path class="st14" d="M759.4,299.6h-1.8c-2.4,0-4.7,0.8-6.5,2.2c-0.9,0.7-1.7,1.6-2.3,2.5c-0.6,1-1.1,2.1-1.4,3.2l-5.3,22
			c-0.2,0.7-0.5,1.4-0.8,1.9c-0.6,0.9-1.3,1.6-2.2,2.1c-0.9,0.5-1.9,0.8-3,0.8h-1.8c-1.2,0-2.1,0.9-2.1,2.1c0,1.2,0.9,2.1,2.1,2.1
			h1.8c2.4,0,4.7-0.8,6.5-2.2c0.9-0.7,1.7-1.6,2.3-2.5c0.6-1,1.1-2.1,1.4-3.2l5.3-22c0.2-0.7,0.5-1.4,0.8-1.9
			c0.6-0.9,1.3-1.6,2.2-2.1c0.9-0.5,1.9-0.8,3-0.8h1.8c1.2,0,2.1-0.9,2.1-2.1C761.5,300.5,760.5,299.6,759.4,299.6z"/>
	</g>
</g>
<g>
	<g>
		<path class="st14" d="M759.5,332.3l2.7-2.7c0.8-0.8,0.8-2.1,0-3c-0.8-0.8-2.1-0.8-3,0l-2.7,2.7l-2.7-2.7c-0.8-0.8-2.1-0.8-3,0
			s-0.8,2.1,0,3l2.7,2.7l-2.7,2.7c-0.8,0.8-0.8,2.1,0,3c0.8,0.8,2.1,0.8,3,0l2.7-2.7l2.7,2.7c0.8,0.8,2.1,0.8,3,0
			c0.8-0.8,0.8-2.1,0-3L759.5,332.3z"/>
	</g>
</g>
<g>
	<g>
		<path class="st14" d="M615.8,310.3c-2.4-5.6-6.4-10.5-11.4-13.8c-5-3.4-11.1-5.4-17.6-5.4c-4.3,0-8.5,0.9-12.2,2.5
			c-5.6,2.4-10.5,6.4-13.8,11.4c-3.4,5-5.4,11.1-5.4,17.6c0,4.3,0.9,8.5,2.5,12.2c2.4,5.6,6.4,10.5,11.4,13.8
			c5,3.4,11.1,5.4,17.6,5.4c4.3,0,8.5-0.9,12.2-2.5c5.6-2.4,10.5-6.4,13.8-11.4c3.4-5,5.4-11.1,5.4-17.6
			C618.3,318.2,617.4,314.1,615.8,310.3z M612,333.2c-2.1,4.9-5.5,9.1-9.9,12c-4.4,2.9-9.6,4.7-15.2,4.7c-3.8,0-7.3-0.8-10.6-2.1
			c-4.9-2.1-9.1-5.5-12-9.9c-2.9-4.4-4.7-9.6-4.7-15.2c0-3.8,0.8-7.3,2.1-10.6c2.1-4.9,5.5-9.1,9.9-12c4.4-2.9,9.6-4.7,15.2-4.7
			c3.8,0,7.3,0.8,10.6,2.1c4.9,2.1,9.1,5.5,12,9.9c2.9,4.4,4.7,9.6,4.7,15.2C614.1,326.3,613.4,329.9,612,333.2z"/>
	</g>
</g>
<g>
	<g>
		<path class="st14" d="M599.2,332.8c-0.3,0-0.6-0.1-0.8-0.2c-0.4-0.2-0.7-0.4-0.9-0.7c-0.1-0.2-0.2-0.3-0.3-0.5
			c-0.1-0.2-0.1-0.4-0.1-0.6v-18.5h2.1c1.1,0,2.1-0.9,2.1-2.1s-0.9-2.1-2.1-2.1h-24.6c-1.1,0-2.1,0.9-2.1,2.1c0,1.1,0.9,2.1,2.1,2.1
			h2.1v22.6c0,1.1,0.9,2.1,2.1,2.1s2.1-0.9,2.1-2.1v-22.6H593v18.5c0,0.8,0.2,1.7,0.5,2.4c0.5,1.1,1.2,2,2.2,2.7
			c0.5,0.3,1,0.6,1.6,0.8c0.6,0.2,1.2,0.3,1.8,0.3c1.1,0,2.1-0.9,2.1-2.1S600.3,332.8,599.2,332.8z"/>
	</g>
</g>
<g>
	<g>
		<path class="st14" d="M450.8,310.3c-2.4-5.6-6.4-10.5-11.4-13.8c-5-3.4-11.1-5.4-17.6-5.4c-4.3,0-8.5,0.9-12.2,2.5
			c-5.6,2.4-10.5,6.4-13.8,11.4c-3.4,5-5.4,11.1-5.4,17.6c0,4.3,0.9,8.5,2.5,12.2c2.4,5.6,6.4,10.5,11.4,13.8
			c5,3.4,11.1,5.4,17.6,5.4c4.3,0,8.5-0.9,12.2-2.5c5.6-2.4,10.5-6.4,13.8-11.4c3.4-5,5.4-11.1,5.4-17.6
			C453.3,318.2,452.4,314.1,450.8,310.3z M447,333.2c-2.1,4.9-5.5,9.1-9.9,12c-4.4,2.9-9.6,4.7-15.2,4.7c-3.8,0-7.3-0.8-10.6-2.1
			c-4.9-2.1-9.1-5.5-12-9.9c-2.9-4.4-4.7-9.6-4.7-15.2c0-3.8,0.8-7.3,2.1-10.6c2.1-4.9,5.5-9.1,9.9-12c4.4-2.9,9.6-4.7,15.2-4.7
			c3.8,0,7.3,0.8,10.6,2.1c4.9,2.1,9.1,5.5,12,9.9c2.9,4.4,4.7,9.6,4.7,15.2C449.1,326.3,448.3,329.9,447,333.2z"/>
	</g>
</g>
<g>
	<g>
		<path class="st14" d="M443.6,318.6c-0.8-1.8-2.1-3.4-3.7-4.5c-0.8-0.6-1.7-1-2.7-1.3c-1-0.3-2-0.5-3.1-0.5c-1.5,0-3,0.3-4.3,0.9
			c-1.1,0.5-2.2,1.1-3.2,1.8c-1.7,1.3-3.3,2.8-4.7,4.4c0,0.1-0.1,0.1-0.1,0.2c0,0,0,0,0,0c-0.8-0.9-1.7-1.8-2.5-2.6
			c-1.3-1.2-2.7-2.4-4.4-3.2c-0.8-0.4-1.7-0.8-2.6-1c-0.9-0.2-1.8-0.4-2.8-0.4c-1.4,0-2.8,0.3-4,0.8c-1.8,0.8-3.4,2.1-4.5,3.7
			c-0.6,0.8-1,1.7-1.3,2.7c-0.3,1-0.5,2-0.5,3.1c0,1.4,0.3,2.8,0.8,4c0.8,1.8,2.1,3.4,3.7,4.5c0.8,0.6,1.7,1,2.7,1.3
			c1,0.3,2,0.5,3.1,0.5c1.5,0,3-0.3,4.3-0.9c1.1-0.5,2.2-1.1,3.2-1.8c1.7-1.3,3.3-2.8,4.7-4.4c0-0.1,0.1-0.1,0.1-0.2c0,0,0,0,0,0
			c0.8,0.9,1.7,1.8,2.5,2.6c1.3,1.2,2.7,2.4,4.4,3.2c0.8,0.4,1.7,0.8,2.6,1c0.9,0.2,1.8,0.4,2.8,0.4c1.4,0,2.8-0.3,4-0.8
			c1.8-0.8,3.4-2.1,4.5-3.7c0.6-0.8,1-1.7,1.3-2.7c0.3-1,0.5-2,0.5-3.1C444.4,321.2,444.1,319.8,443.6,318.6z M418.8,322.9
			c-0.8,0.8-1.6,1.7-2.3,2.4c-1.2,1.1-2.3,2-3.5,2.6c-0.6,0.3-1.1,0.5-1.7,0.7c-0.6,0.2-1.2,0.2-1.8,0.2c-0.9,0-1.7-0.2-2.4-0.5
			c-1.1-0.5-2-1.3-2.7-2.2c-0.3-0.5-0.6-1-0.8-1.6c-0.2-0.6-0.3-1.2-0.3-1.8c0-0.9,0.2-1.7,0.5-2.4c0.5-1.1,1.3-2,2.2-2.7
			c0.5-0.3,1-0.6,1.6-0.8c0.6-0.2,1.2-0.3,1.8-0.3c0.9,0,1.8,0.2,2.7,0.6c0.8,0.3,1.5,0.8,2.3,1.3c1.4,1,2.7,2.4,4.1,3.8
			c0.1,0.1,0.3,0.3,0.4,0.4C419,322.7,418.9,322.8,418.8,322.9z M439.8,325c-0.5,1.1-1.3,2-2.2,2.7c-0.5,0.3-1,0.6-1.6,0.8
			c-0.6,0.2-1.2,0.3-1.8,0.3c-0.9,0-1.8-0.2-2.7-0.6c-0.8-0.3-1.5-0.8-2.3-1.3c-1.4-1-2.7-2.4-4.1-3.8c-0.1-0.1-0.3-0.3-0.4-0.4
			c0.1-0.1,0.2-0.2,0.3-0.3c0.8-0.8,1.6-1.7,2.3-2.4c1.2-1.1,2.3-2,3.5-2.6c0.6-0.3,1.1-0.5,1.7-0.7c0.6-0.2,1.2-0.2,1.8-0.2
			c0.9,0,1.7,0.2,2.4,0.5c1.1,0.5,2,1.3,2.7,2.2c0.3,0.5,0.6,1,0.8,1.6c0.2,0.6,0.3,1.2,0.3,1.8C440.3,323.4,440.1,324.2,439.8,325z
			"/>
	</g>
</g>
<g>
	<g>
		<path class="st15" d="M289.7,310.3c-2.4-5.6-6.4-10.5-11.4-13.8c-5-3.4-11.1-5.4-17.6-5.4c-4.3,0-8.5,0.9-12.2,2.5
			c-5.6,2.4-10.5,6.4-13.8,11.4c-3.4,5-5.4,11.1-5.4,17.6c0,4.3,0.9,8.5,2.5,12.2c2.4,5.6,6.4,10.5,11.4,13.8
			c5,3.4,11.1,5.4,17.6,5.4c4.3,0,8.5-0.9,12.2-2.5c5.6-2.4,10.5-6.4,13.8-11.4c3.4-5,5.4-11.1,5.4-17.6
			C292.1,318.2,291.3,314.1,289.7,310.3z M285.8,333.2c-2.1,4.9-5.5,9.1-9.9,12c-4.4,2.9-9.6,4.7-15.2,4.7c-3.8,0-7.3-0.8-10.6-2.1
			c-4.9-2.1-9.1-5.5-12-9.9c-2.9-4.4-4.7-9.6-4.7-15.2c0-3.8,0.8-7.3,2.1-10.6c2.1-4.9,5.5-9.1,9.9-12c4.4-2.9,9.6-4.7,15.2-4.7
			c3.8,0,7.3,0.8,10.6,2.1c4.9,2.1,9.1,5.5,12,9.9c2.9,4.4,4.7,9.6,4.7,15.2C288,326.3,287.2,329.9,285.8,333.2z"/>
	</g>
</g>
<g>
	<g>
		<path class="st15" d="M277.1,320.5h-32.9c-1.1,0-2.1,0.9-2.1,2.1c0,1.1,0.9,2.1,2.1,2.1h32.9c1.1,0,2.1-0.9,2.1-2.1
			C279.2,321.4,278.2,320.5,277.1,320.5z"/>
	</g>
</g>
<g>
	<g>
		<path class="st15" d="M266.3,307.9c-0.5-1.1-1.2-2-2.2-2.7c-0.5-0.3-1-0.6-1.6-0.8c-0.6-0.2-1.2-0.3-1.8-0.3
			c-0.8,0-1.7,0.2-2.4,0.5c-1.1,0.5-2,1.2-2.7,2.2c-0.3,0.5-0.6,1-0.8,1.6c-0.2,0.6-0.3,1.2-0.3,1.8c0,0.8,0.2,1.7,0.5,2.4
			c0.5,1.1,1.2,2,2.2,2.7c0.5,0.3,1,0.6,1.6,0.8c0.6,0.2,1.2,0.3,1.8,0.3c0.8,0,1.7-0.2,2.4-0.5c1.1-0.5,2-1.2,2.7-2.2
			c0.3-0.5,0.6-1,0.8-1.6c0.2-0.6,0.3-1.2,0.3-1.8C266.8,309.4,266.7,308.6,266.3,307.9z M262.6,311.1c-0.2,0.4-0.4,0.7-0.7,0.9
			c-0.2,0.1-0.3,0.2-0.5,0.3c-0.2,0.1-0.4,0.1-0.6,0.1c-0.3,0-0.6-0.1-0.8-0.2c-0.4-0.2-0.7-0.4-0.9-0.7c-0.1-0.2-0.2-0.3-0.3-0.5
			c-0.1-0.2-0.1-0.4-0.1-0.6c0-0.3,0.1-0.6,0.2-0.8c0.2-0.4,0.4-0.7,0.7-0.9c0.2-0.1,0.3-0.2,0.5-0.3c0.2-0.1,0.4-0.1,0.6-0.1
			c0.3,0,0.6,0.1,0.8,0.2c0.4,0.2,0.7,0.4,0.9,0.7c0.1,0.2,0.2,0.3,0.3,0.5c0.1,0.2,0.1,0.4,0.1,0.6
			C262.7,310.5,262.7,310.8,262.6,311.1z"/>
	</g>
</g>
<g>
	<g>
		<path class="st15" d="M266.3,332.5c-0.5-1.1-1.2-2-2.2-2.7c-0.5-0.3-1-0.6-1.6-0.8c-0.6-0.2-1.2-0.3-1.8-0.3
			c-0.8,0-1.7,0.2-2.4,0.5c-1.1,0.5-2,1.2-2.7,2.2c-0.3,0.5-0.6,1-0.8,1.6c-0.2,0.6-0.3,1.2-0.3,1.8c0,0.8,0.2,1.7,0.5,2.4
			c0.5,1.1,1.2,2,2.2,2.7c0.5,0.3,1,0.6,1.6,0.8c0.6,0.2,1.2,0.3,1.8,0.3c0.8,0,1.7-0.2,2.4-0.5c1.1-0.5,2-1.2,2.7-2.2
			c0.3-0.5,0.6-1,0.8-1.6c0.2-0.6,0.3-1.2,0.3-1.8C266.8,334,266.7,333.2,266.3,332.5z M262.6,335.7c-0.2,0.4-0.4,0.7-0.7,0.9
			c-0.2,0.1-0.3,0.2-0.5,0.3c-0.2,0.1-0.4,0.1-0.6,0.1c-0.3,0-0.6-0.1-0.8-0.2c-0.4-0.2-0.7-0.4-0.9-0.7c-0.1-0.2-0.2-0.3-0.3-0.5
			c-0.1-0.2-0.1-0.4-0.1-0.6c0-0.3,0.1-0.6,0.2-0.8c0.2-0.4,0.4-0.7,0.7-0.9c0.2-0.1,0.3-0.2,0.5-0.3c0.2-0.1,0.4-0.1,0.6-0.1
			c0.3,0,0.6,0.1,0.8,0.2c0.4,0.2,0.7,0.4,0.9,0.7c0.1,0.2,0.2,0.3,0.3,0.5c0.1,0.2,0.1,0.4,0.1,0.6
			C262.7,335.2,262.7,335.4,262.6,335.7z"/>
	</g>
</g>
<g>
	<g>
		<path class="st14" d="M943.2,309.8c-2.5-5.9-6.6-10.9-11.9-14.4c-5.2-3.5-11.5-5.6-18.3-5.6c-4.5,0-8.8,0.9-12.7,2.6
			c-5.9,2.5-10.9,6.6-14.4,11.9c-3.5,5.2-5.6,11.5-5.6,18.3c0,4.5,0.9,8.8,2.6,12.7c2.5,5.9,6.6,10.9,11.9,14.4
			c5.2,3.5,11.5,5.6,18.3,5.6c4.5,0,8.8-0.9,12.7-2.6c5.9-2.5,10.9-6.6,14.4-11.9c3.5-5.2,5.6-11.5,5.6-18.3
			C945.8,318.1,944.8,313.8,943.2,309.8z M939.2,333.6c-2.2,5.1-5.8,9.4-10.3,12.5c-4.5,3.1-10,4.9-15.9,4.9c-3.9,0-7.6-0.8-11-2.2
			c-5.1-2.2-9.4-5.8-12.5-10.3c-3.1-4.5-4.9-10-4.9-15.9c0-3.9,0.8-7.6,2.2-11c2.2-5.1,5.8-9.4,10.3-12.5c4.5-3.1,10-4.9,15.9-4.9
			c3.9,0,7.6,0.8,11,2.2c5.1,2.2,9.4,5.8,12.5,10.3c3.1,4.5,4.9,10,4.9,15.9C941.4,326.5,940.6,330.2,939.2,333.6z"/>
	</g>
</g>
<g>
	<g>
		<path class="st14" d="M930.1,306.2L930.1,306.2l-10,0c-0.8,0-1.5,0.5-1.9,1.2L904.5,335l-6.7-13.3c-0.4-0.7-1.1-1.2-1.9-1.2h-4.3
			c-1.2,0-2.1,1-2.1,2.1c0,1.2,0.9,2.1,2.1,2.1h3l8,15.9c0.4,0.7,1.1,1.2,1.9,1.2c0.8,0,1.5-0.4,1.9-1.1l15.1-30.2h8.7
			c1.2,0,2.1-1,2.1-2.1C932.2,307.2,931.3,306.2,930.1,306.2z"/>
	</g>
</g>
</svg>
